# Tiled2Unity generated file. Do not modify by hand.
# Wavefront file for 'room2_mesh_0003.obj'

# Vertices (Count = 376)
v -24 -1 0
v -25 -1 0
v -25 0 0
v -24 0 0
v -23 -1 0
v -24 -1 0
v -24 0 0
v -23 0 0
v -22 -1 0
v -23 -1 0
v -23 0 0
v -22 0 0
v -21 -1 0
v -22 -1 0
v -22 0 0
v -21 0 0
v -20 -1 0
v -21 -1 0
v -21 0 0
v -20 0 0
v -19 -1 0
v -20 -1 0
v -20 0 0
v -19 0 0
v -18 -1 0
v -19 -1 0
v -19 0 0
v -18 0 0
v -17 -1 0
v -18 -1 0
v -18 0 0
v -17 0 0
v -16 -1 0
v -17 -1 0
v -17 0 0
v -16 0 0
v -15 -1 0
v -16 -1 0
v -16 0 0
v -15 0 0
v -14 -1 0
v -15 -1 0
v -15 0 0
v -14 0 0
v -13 -1 0
v -14 -1 0
v -14 0 0
v -13 0 0
v -12 -1 0
v -13 -1 0
v -13 0 0
v -12 0 0
v -11 -1 0
v -12 -1 0
v -12 0 0
v -11 0 0
v -10 -1 0
v -11 -1 0
v -11 0 0
v -10 0 0
v -9 -1 0
v -10 -1 0
v -10 0 0
v -9 0 0
v -8 -1 0
v -9 -1 0
v -9 0 0
v -8 0 0
v -7 -1 0
v -8 -1 0
v -8 0 0
v -7 0 0
v -6 -1 0
v -7 -1 0
v -7 0 0
v -6 0 0
v -5 -1 0
v -6 -1 0
v -6 0 0
v -5 0 0
v -4 -1 0
v -5 -1 0
v -5 0 0
v -4 0 0
v -3 -1 0
v -4 -1 0
v -4 0 0
v -3 0 0
v -2 -1 0
v -3 -1 0
v -3 0 0
v -2 0 0
v -1 -1 0
v -2 -1 0
v -2 0 0
v -1 0 0
v 0 -1 0
v -1 -1 0
v -1 0 0
v 0 0 0
v -24 -2 0
v -25 -2 0
v -25 -1 0
v -24 -1 0
v 0 -2 0
v -1 -2 0
v -1 -1 0
v 0 -1 0
v -24 -3 0
v -25 -3 0
v -25 -2 0
v -24 -2 0
v 0 -3 0
v -1 -3 0
v -1 -2 0
v 0 -2 0
v -24 -4 0
v -25 -4 0
v -25 -3 0
v -24 -3 0
v 0 -4 0
v -1 -4 0
v -1 -3 0
v 0 -3 0
v -24 -5 0
v -25 -5 0
v -25 -4 0
v -24 -4 0
v 0 -5 0
v -1 -5 0
v -1 -4 0
v 0 -4 0
v -24 -6 0
v -25 -6 0
v -25 -5 0
v -24 -5 0
v 0 -6 0
v -1 -6 0
v -1 -5 0
v 0 -5 0
v -24 -7 0
v -25 -7 0
v -25 -6 0
v -24 -6 0
v 0 -7 0
v -1 -7 0
v -1 -6 0
v 0 -6 0
v -24 -8 0
v -25 -8 0
v -25 -7 0
v -24 -7 0
v 0 -8 0
v -1 -8 0
v -1 -7 0
v 0 -7 0
v -24 -9 0
v -25 -9 0
v -25 -8 0
v -24 -8 0
v 0 -9 0
v -1 -9 0
v -1 -8 0
v 0 -8 0
v -24 -10 0
v -25 -10 0
v -25 -9 0
v -24 -9 0
v 0 -10 0
v -1 -10 0
v -1 -9 0
v 0 -9 0
v -24 -11 0
v -25 -11 0
v -25 -10 0
v -24 -10 0
v 0 -11 0
v -1 -11 0
v -1 -10 0
v 0 -10 0
v -24 -12 0
v -25 -12 0
v -25 -11 0
v -24 -11 0
v 0 -12 0
v -1 -12 0
v -1 -11 0
v 0 -11 0
v -24 -13 0
v -25 -13 0
v -25 -12 0
v -24 -12 0
v 0 -13 0
v -1 -13 0
v -1 -12 0
v 0 -12 0
v -24 -14 0
v -25 -14 0
v -25 -13 0
v -24 -13 0
v 0 -14 0
v -1 -14 0
v -1 -13 0
v 0 -13 0
v -24 -15 0
v -25 -15 0
v -25 -14 0
v -24 -14 0
v 0 -15 0
v -1 -15 0
v -1 -14 0
v 0 -14 0
v -24 -16 0
v -25 -16 0
v -25 -15 0
v -24 -15 0
v 0 -16 0
v -1 -16 0
v -1 -15 0
v 0 -15 0
v -24 -17 0
v -25 -17 0
v -25 -16 0
v -24 -16 0
v 0 -17 0
v -1 -17 0
v -1 -16 0
v 0 -16 0
v -24 -18 0
v -25 -18 0
v -25 -17 0
v -24 -17 0
v 0 -18 0
v -1 -18 0
v -1 -17 0
v 0 -17 0
v -24 -19 0
v -25 -19 0
v -25 -18 0
v -24 -18 0
v 0 -19 0
v -1 -19 0
v -1 -18 0
v 0 -18 0
v -24 -20 0
v -25 -20 0
v -25 -19 0
v -24 -19 0
v 0 -20 0
v -1 -20 0
v -1 -19 0
v 0 -19 0
v -24 -21 0
v -25 -21 0
v -25 -20 0
v -24 -20 0
v 0 -21 0
v -1 -21 0
v -1 -20 0
v 0 -20 0
v -24 -22 0
v -25 -22 0
v -25 -21 0
v -24 -21 0
v 0 -22 0
v -1 -22 0
v -1 -21 0
v 0 -21 0
v -24 -23 0
v -25 -23 0
v -25 -22 0
v -24 -22 0
v 0 -23 0
v -1 -23 0
v -1 -22 0
v 0 -22 0
v -24 -24 0
v -25 -24 0
v -25 -23 0
v -24 -23 0
v 0 -24 0
v -1 -24 0
v -1 -23 0
v 0 -23 0
v -24 -25 0
v -25 -25 0
v -25 -24 0
v -24 -24 0
v -23 -25 0
v -24 -25 0
v -24 -24 0
v -23 -24 0
v -22 -25 0
v -23 -25 0
v -23 -24 0
v -22 -24 0
v -21 -25 0
v -22 -25 0
v -22 -24 0
v -21 -24 0
v -20 -25 0
v -21 -25 0
v -21 -24 0
v -20 -24 0
v -19 -25 0
v -20 -25 0
v -20 -24 0
v -19 -24 0
v -18 -25 0
v -19 -25 0
v -19 -24 0
v -18 -24 0
v -17 -25 0
v -18 -25 0
v -18 -24 0
v -17 -24 0
v -16 -25 0
v -17 -25 0
v -17 -24 0
v -16 -24 0
v -15 -25 0
v -16 -25 0
v -16 -24 0
v -15 -24 0
v -14 -25 0
v -15 -25 0
v -15 -24 0
v -14 -24 0
v -13 -25 0
v -14 -25 0
v -14 -24 0
v -13 -24 0
v -10 -25 0
v -11 -25 0
v -11 -24 0
v -10 -24 0
v -9 -25 0
v -10 -25 0
v -10 -24 0
v -9 -24 0
v -8 -25 0
v -9 -25 0
v -9 -24 0
v -8 -24 0
v -7 -25 0
v -8 -25 0
v -8 -24 0
v -7 -24 0
v -6 -25 0
v -7 -25 0
v -7 -24 0
v -6 -24 0
v -5 -25 0
v -6 -25 0
v -6 -24 0
v -5 -24 0
v -4 -25 0
v -5 -25 0
v -5 -24 0
v -4 -24 0
v -3 -25 0
v -4 -25 0
v -4 -24 0
v -3 -24 0
v -2 -25 0
v -3 -25 0
v -3 -24 0
v -2 -24 0
v -1 -25 0
v -2 -25 0
v -2 -24 0
v -1 -24 0
v 0 -25 0
v -1 -25 0
v -1 -24 0
v 0 -24 0

# Texture cooridinates (Count = 22)
vt 0.075 0.4444444
vt 0.1 0.4444444
vt 0.1 0.4722222
vt 0.075 0.4722222
vt 0.125 0.4444444
vt 0.15 0.4444444
vt 0.15 0.4722222
vt 0.125 0.4722222
vt 0.175 0.4722222
vt 0.175 0.5
vt 0.15 0.5
vt 0.2 0.4722222
vt 0.2 0.5
vt 0.175 0.5277778
vt 0.2 0.5277778
vt 0.2 0.5555556
vt 0.175 0.5555556
vt 0.125 0.5
vt 0.125 0.5277778
vt 0.15 0.5277778
vt 0.15 0.5555556
vt 0.125 0.5555556

# Normal
vn 0 0 -1

# Mesh description
g room2_mesh_0003

# Faces
f 1/1/1 2/2/1 3/3/1 4/4/1
f 5/5/1 6/6/1 7/7/1 8/8/1
f 9/5/1 10/6/1 11/7/1 12/8/1
f 13/5/1 14/6/1 15/7/1 16/8/1
f 17/5/1 18/6/1 19/7/1 20/8/1
f 21/5/1 22/6/1 23/7/1 24/8/1
f 25/5/1 26/6/1 27/7/1 28/8/1
f 29/5/1 30/6/1 31/7/1 32/8/1
f 33/5/1 34/6/1 35/7/1 36/8/1
f 37/5/1 38/6/1 39/7/1 40/8/1
f 41/5/1 42/6/1 43/7/1 44/8/1
f 45/5/1 46/6/1 47/7/1 48/8/1
f 49/5/1 50/6/1 51/7/1 52/8/1
f 53/5/1 54/6/1 55/7/1 56/8/1
f 57/5/1 58/6/1 59/7/1 60/8/1
f 61/5/1 62/6/1 63/7/1 64/8/1
f 65/5/1 66/6/1 67/7/1 68/8/1
f 69/5/1 70/6/1 71/7/1 72/8/1
f 73/5/1 74/6/1 75/7/1 76/8/1
f 77/5/1 78/6/1 79/7/1 80/8/1
f 81/5/1 82/6/1 83/7/1 84/8/1
f 85/5/1 86/6/1 87/7/1 88/8/1
f 89/5/1 90/6/1 91/7/1 92/8/1
f 93/5/1 94/6/1 95/7/1 96/8/1
f 97/2/1 98/5/1 99/8/1 100/3/1
f 101/7/1 102/9/1 103/10/1 104/11/1
f 105/9/1 106/12/1 107/13/1 108/10/1
f 109/7/1 110/9/1 111/10/1 112/11/1
f 113/9/1 114/12/1 115/13/1 116/10/1
f 117/7/1 118/9/1 119/10/1 120/11/1
f 121/9/1 122/12/1 123/13/1 124/10/1
f 125/7/1 126/9/1 127/10/1 128/11/1
f 129/9/1 130/12/1 131/13/1 132/10/1
f 133/7/1 134/9/1 135/10/1 136/11/1
f 137/9/1 138/12/1 139/13/1 140/10/1
f 141/7/1 142/9/1 143/10/1 144/11/1
f 145/9/1 146/12/1 147/13/1 148/10/1
f 149/7/1 150/9/1 151/10/1 152/11/1
f 153/9/1 154/12/1 155/13/1 156/10/1
f 157/7/1 158/9/1 159/10/1 160/11/1
f 161/9/1 162/12/1 163/13/1 164/10/1
f 165/7/1 166/9/1 167/10/1 168/11/1
f 169/9/1 170/12/1 171/13/1 172/10/1
f 173/7/1 174/9/1 175/10/1 176/11/1
f 177/9/1 178/12/1 179/13/1 180/10/1
f 181/7/1 182/9/1 183/10/1 184/11/1
f 185/9/1 186/12/1 187/13/1 188/10/1
f 189/7/1 190/9/1 191/10/1 192/11/1
f 193/9/1 194/12/1 195/13/1 196/10/1
f 197/7/1 198/9/1 199/10/1 200/11/1
f 201/9/1 202/12/1 203/13/1 204/10/1
f 205/7/1 206/9/1 207/10/1 208/11/1
f 209/9/1 210/12/1 211/13/1 212/10/1
f 213/7/1 214/9/1 215/10/1 216/11/1
f 217/9/1 218/12/1 219/13/1 220/10/1
f 221/7/1 222/9/1 223/10/1 224/11/1
f 225/9/1 226/12/1 227/13/1 228/10/1
f 229/7/1 230/9/1 231/10/1 232/11/1
f 233/9/1 234/12/1 235/13/1 236/10/1
f 237/7/1 238/9/1 239/10/1 240/11/1
f 241/9/1 242/12/1 243/13/1 244/10/1
f 245/7/1 246/9/1 247/10/1 248/11/1
f 249/9/1 250/12/1 251/13/1 252/10/1
f 253/7/1 254/9/1 255/10/1 256/11/1
f 257/9/1 258/12/1 259/13/1 260/10/1
f 261/7/1 262/9/1 263/10/1 264/11/1
f 265/9/1 266/12/1 267/13/1 268/10/1
f 269/7/1 270/9/1 271/10/1 272/11/1
f 273/9/1 274/12/1 275/13/1 276/10/1
f 277/7/1 278/9/1 279/10/1 280/11/1
f 281/9/1 282/12/1 283/13/1 284/10/1
f 285/14/1 286/15/1 287/16/1 288/17/1
f 289/8/1 290/7/1 291/11/1 292/18/1
f 293/8/1 294/7/1 295/11/1 296/18/1
f 297/8/1 298/7/1 299/11/1 300/18/1
f 301/8/1 302/7/1 303/11/1 304/18/1
f 305/8/1 306/7/1 307/11/1 308/18/1
f 309/8/1 310/7/1 311/11/1 312/18/1
f 313/8/1 314/7/1 315/11/1 316/18/1
f 317/8/1 318/7/1 319/11/1 320/18/1
f 321/8/1 322/7/1 323/11/1 324/18/1
f 325/8/1 326/7/1 327/11/1 328/18/1
f 329/19/1 330/20/1 331/21/1 332/22/1
f 333/20/1 334/14/1 335/17/1 336/21/1
f 337/8/1 338/7/1 339/11/1 340/18/1
f 341/8/1 342/7/1 343/11/1 344/18/1
f 345/8/1 346/7/1 347/11/1 348/18/1
f 349/8/1 350/7/1 351/11/1 352/18/1
f 353/8/1 354/7/1 355/11/1 356/18/1
f 357/8/1 358/7/1 359/11/1 360/18/1
f 361/8/1 362/7/1 363/11/1 364/18/1
f 365/8/1 366/7/1 367/11/1 368/18/1
f 369/8/1 370/7/1 371/11/1 372/18/1
f 373/10/1 374/13/1 375/15/1 376/14/1

