# Tiled2Unity generated file. Do not modify by hand.
# Wavefront file for 'overWorldTest_mesh_0002.obj'

# Vertices (Count = 652)
v -24 -1 0
v -25 -1 0
v -25 0 0
v -24 0 0
v -23 -1 0
v -24 -1 0
v -24 0 0
v -23 0 0
v -22 -1 0
v -23 -1 0
v -23 0 0
v -22 0 0
v -21 -1 0
v -22 -1 0
v -22 0 0
v -21 0 0
v -20 -1 0
v -21 -1 0
v -21 0 0
v -20 0 0
v -19 -1 0
v -20 -1 0
v -20 0 0
v -19 0 0
v -18 -1 0
v -19 -1 0
v -19 0 0
v -18 0 0
v -17 -1 0
v -18 -1 0
v -18 0 0
v -17 0 0
v -16 -1 0
v -17 -1 0
v -17 0 0
v -16 0 0
v -15 -1 0
v -16 -1 0
v -16 0 0
v -15 0 0
v -14 -1 0
v -15 -1 0
v -15 0 0
v -14 0 0
v -13 -1 0
v -14 -1 0
v -14 0 0
v -13 0 0
v -10 -1 0
v -11 -1 0
v -11 0 0
v -10 0 0
v -9 -1 0
v -10 -1 0
v -10 0 0
v -9 0 0
v -8 -1 0
v -9 -1 0
v -9 0 0
v -8 0 0
v -7 -1 0
v -8 -1 0
v -8 0 0
v -7 0 0
v -6 -1 0
v -7 -1 0
v -7 0 0
v -6 0 0
v -5 -1 0
v -6 -1 0
v -6 0 0
v -5 0 0
v -4 -1 0
v -5 -1 0
v -5 0 0
v -4 0 0
v -3 -1 0
v -4 -1 0
v -4 0 0
v -3 0 0
v -2 -1 0
v -3 -1 0
v -3 0 0
v -2 0 0
v -1 -1 0
v -2 -1 0
v -2 0 0
v -1 0 0
v 0 -1 0
v -1 -1 0
v -1 0 0
v 0 0 0
v -24 -2 0
v -25 -2 0
v -25 -1 0
v -24 -1 0
v 0 -2 0
v -1 -2 0
v -1 -1 0
v 0 -1 0
v -24 -3 0
v -25 -3 0
v -25 -2 0
v -24 -2 0
v -22 -3 0
v -23 -3 0
v -23 -2 0
v -22 -2 0
v -21 -3 0
v -22 -3 0
v -22 -2 0
v -21 -2 0
v -20 -3 0
v -21 -3 0
v -21 -2 0
v -20 -2 0
v 0 -3 0
v -1 -3 0
v -1 -2 0
v 0 -2 0
v -24 -4 0
v -25 -4 0
v -25 -3 0
v -24 -3 0
v 0 -4 0
v -1 -4 0
v -1 -3 0
v 0 -3 0
v -24 -5 0
v -25 -5 0
v -25 -4 0
v -24 -4 0
v 0 -5 0
v -1 -5 0
v -1 -4 0
v 0 -4 0
v -24 -6 0
v -25 -6 0
v -25 -5 0
v -24 -5 0
v -21 -6 0
v -22 -6 0
v -22 -5 0
v -21 -5 0
v -20 -6 0
v -21 -6 0
v -21 -5 0
v -20 -5 0
v -16 -6 0
v -17 -6 0
v -17 -5 0
v -16 -5 0
v -15 -6 0
v -16 -6 0
v -16 -5 0
v -15 -5 0
v -7 -6 0
v -8 -6 0
v -8 -5 0
v -7 -5 0
v -6 -6 0
v -7 -6 0
v -7 -5 0
v -6 -5 0
v -5 -6 0
v -6 -6 0
v -6 -5 0
v -5 -5 0
v -4 -6 0
v -5 -6 0
v -5 -5 0
v -4 -5 0
v -3 -6 0
v -4 -6 0
v -4 -5 0
v -3 -5 0
v 0 -6 0
v -1 -6 0
v -1 -5 0
v 0 -5 0
v -24 -7 0
v -25 -7 0
v -25 -6 0
v -24 -6 0
v -21 -7 0
v -22 -7 0
v -22 -6 0
v -21 -6 0
v -20 -7 0
v -21 -7 0
v -21 -6 0
v -20 -6 0
v -16 -7 0
v -17 -7 0
v -17 -6 0
v -16 -6 0
v -15 -7 0
v -16 -7 0
v -16 -6 0
v -15 -6 0
v -7 -7 0
v -8 -7 0
v -8 -6 0
v -7 -6 0
v -6 -7 0
v -7 -7 0
v -7 -6 0
v -6 -6 0
v -5 -7 0
v -6 -7 0
v -6 -6 0
v -5 -6 0
v -4 -7 0
v -5 -7 0
v -5 -6 0
v -4 -6 0
v -3 -7 0
v -4 -7 0
v -4 -6 0
v -3 -6 0
v 0 -7 0
v -1 -7 0
v -1 -6 0
v 0 -6 0
v -24 -8 0
v -25 -8 0
v -25 -7 0
v -24 -7 0
v -9 -8 0
v -10 -8 0
v -10 -7 0
v -9 -7 0
v -8 -8 0
v -9 -8 0
v -9 -7 0
v -8 -7 0
v -7 -8 0
v -8 -8 0
v -8 -7 0
v -7 -7 0
v -6 -8 0
v -7 -8 0
v -7 -7 0
v -6 -7 0
v -5 -8 0
v -6 -8 0
v -6 -7 0
v -5 -7 0
v -4 -8 0
v -5 -8 0
v -5 -7 0
v -4 -7 0
v -3 -8 0
v -4 -8 0
v -4 -7 0
v -3 -7 0
v 0 -8 0
v -1 -8 0
v -1 -7 0
v 0 -7 0
v -24 -9 0
v -25 -9 0
v -25 -8 0
v -24 -8 0
v -9 -9 0
v -10 -9 0
v -10 -8 0
v -9 -8 0
v -8 -9 0
v -9 -9 0
v -9 -8 0
v -8 -8 0
v -7 -9 0
v -8 -9 0
v -8 -8 0
v -7 -8 0
v -6 -9 0
v -7 -9 0
v -7 -8 0
v -6 -8 0
v -5 -9 0
v -6 -9 0
v -6 -8 0
v -5 -8 0
v -4 -9 0
v -5 -9 0
v -5 -8 0
v -4 -8 0
v -3 -9 0
v -4 -9 0
v -4 -8 0
v -3 -8 0
v 0 -9 0
v -1 -9 0
v -1 -8 0
v 0 -8 0
v -24 -10 0
v -25 -10 0
v -25 -9 0
v -24 -9 0
v -20 -10 0
v -21 -10 0
v -21 -9 0
v -20 -9 0
v -19 -10 0
v -20 -10 0
v -20 -9 0
v -19 -9 0
v -18 -10 0
v -19 -10 0
v -19 -9 0
v -18 -9 0
v -9 -10 0
v -10 -10 0
v -10 -9 0
v -9 -9 0
v -8 -10 0
v -9 -10 0
v -9 -9 0
v -8 -9 0
v -7 -10 0
v -8 -10 0
v -8 -9 0
v -7 -9 0
v -6 -10 0
v -7 -10 0
v -7 -9 0
v -6 -9 0
v -5 -10 0
v -6 -10 0
v -6 -9 0
v -5 -9 0
v -4 -10 0
v -5 -10 0
v -5 -9 0
v -4 -9 0
v -3 -10 0
v -4 -10 0
v -4 -9 0
v -3 -9 0
v 0 -10 0
v -1 -10 0
v -1 -9 0
v 0 -9 0
v -24 -11 0
v -25 -11 0
v -25 -10 0
v -24 -10 0
v 0 -11 0
v -1 -11 0
v -1 -10 0
v 0 -10 0
v -24 -12 0
v -25 -12 0
v -25 -11 0
v -24 -11 0
v 0 -12 0
v -1 -12 0
v -1 -11 0
v 0 -11 0
v -24 -15 0
v -25 -15 0
v -25 -14 0
v -24 -14 0
v 0 -15 0
v -1 -15 0
v -1 -14 0
v 0 -14 0
v -24 -16 0
v -25 -16 0
v -25 -15 0
v -24 -15 0
v 0 -16 0
v -1 -16 0
v -1 -15 0
v 0 -15 0
v -24 -17 0
v -25 -17 0
v -25 -16 0
v -24 -16 0
v -16 -17 0
v -17 -17 0
v -17 -16 0
v -16 -16 0
v -15 -17 0
v -16 -17 0
v -16 -16 0
v -15 -16 0
v -3 -17 0
v -4 -17 0
v -4 -16 0
v -3 -16 0
v -2 -17 0
v -3 -17 0
v -3 -16 0
v -2 -16 0
v 0 -17 0
v -1 -17 0
v -1 -16 0
v 0 -16 0
v -24 -18 0
v -25 -18 0
v -25 -17 0
v -24 -17 0
v -16 -18 0
v -17 -18 0
v -17 -17 0
v -16 -17 0
v -15 -18 0
v -16 -18 0
v -16 -17 0
v -15 -17 0
v -3 -18 0
v -4 -18 0
v -4 -17 0
v -3 -17 0
v -2 -18 0
v -3 -18 0
v -3 -17 0
v -2 -17 0
v 0 -18 0
v -1 -18 0
v -1 -17 0
v 0 -17 0
v -24 -19 0
v -25 -19 0
v -25 -18 0
v -24 -18 0
v -16 -19 0
v -17 -19 0
v -17 -18 0
v -16 -18 0
v -15 -19 0
v -16 -19 0
v -16 -18 0
v -15 -18 0
v -14 -19 0
v -15 -19 0
v -15 -18 0
v -14 -18 0
v 0 -19 0
v -1 -19 0
v -1 -18 0
v 0 -18 0
v -24 -20 0
v -25 -20 0
v -25 -19 0
v -24 -19 0
v -17 -20 0
v -18 -20 0
v -18 -19 0
v -17 -19 0
v -16 -20 0
v -17 -20 0
v -17 -19 0
v -16 -19 0
v -15 -20 0
v -16 -20 0
v -16 -19 0
v -15 -19 0
v -14 -20 0
v -15 -20 0
v -15 -19 0
v -14 -19 0
v -5 -20 0
v -6 -20 0
v -6 -19 0
v -5 -19 0
v -4 -20 0
v -5 -20 0
v -5 -19 0
v -4 -19 0
v 0 -20 0
v -1 -20 0
v -1 -19 0
v 0 -19 0
v -24 -21 0
v -25 -21 0
v -25 -20 0
v -24 -20 0
v -17 -21 0
v -18 -21 0
v -18 -20 0
v -17 -20 0
v -16 -21 0
v -17 -21 0
v -17 -20 0
v -16 -20 0
v -15 -21 0
v -16 -21 0
v -16 -20 0
v -15 -20 0
v -5 -21 0
v -6 -21 0
v -6 -20 0
v -5 -20 0
v -4 -21 0
v -5 -21 0
v -5 -20 0
v -4 -20 0
v 0 -21 0
v -1 -21 0
v -1 -20 0
v 0 -20 0
v -24 -22 0
v -25 -22 0
v -25 -21 0
v -24 -21 0
v -21 -22 0
v -22 -22 0
v -22 -21 0
v -21 -21 0
v -20 -22 0
v -21 -22 0
v -21 -21 0
v -20 -21 0
v 0 -22 0
v -1 -22 0
v -1 -21 0
v 0 -21 0
v -24 -23 0
v -25 -23 0
v -25 -22 0
v -24 -22 0
v -21 -23 0
v -22 -23 0
v -22 -22 0
v -21 -22 0
v -20 -23 0
v -21 -23 0
v -21 -22 0
v -20 -22 0
v -3 -23 0
v -4 -23 0
v -4 -22 0
v -3 -22 0
v -2 -23 0
v -3 -23 0
v -3 -22 0
v -2 -22 0
v 0 -23 0
v -1 -23 0
v -1 -22 0
v 0 -22 0
v -24 -24 0
v -25 -24 0
v -25 -23 0
v -24 -23 0
v -3 -24 0
v -4 -24 0
v -4 -23 0
v -3 -23 0
v -2 -24 0
v -3 -24 0
v -3 -23 0
v -2 -23 0
v 0 -24 0
v -1 -24 0
v -1 -23 0
v 0 -23 0
v -24 -25 0
v -25 -25 0
v -25 -24 0
v -24 -24 0
v -23 -25 0
v -24 -25 0
v -24 -24 0
v -23 -24 0
v -22 -25 0
v -23 -25 0
v -23 -24 0
v -22 -24 0
v -21 -25 0
v -22 -25 0
v -22 -24 0
v -21 -24 0
v -20 -25 0
v -21 -25 0
v -21 -24 0
v -20 -24 0
v -19 -25 0
v -20 -25 0
v -20 -24 0
v -19 -24 0
v -18 -25 0
v -19 -25 0
v -19 -24 0
v -18 -24 0
v -17 -25 0
v -18 -25 0
v -18 -24 0
v -17 -24 0
v -16 -25 0
v -17 -25 0
v -17 -24 0
v -16 -24 0
v -15 -25 0
v -16 -25 0
v -16 -24 0
v -15 -24 0
v -14 -25 0
v -15 -25 0
v -15 -24 0
v -14 -24 0
v -13 -25 0
v -14 -25 0
v -14 -24 0
v -13 -24 0
v -12 -25 0
v -13 -25 0
v -13 -24 0
v -12 -24 0
v -11 -25 0
v -12 -25 0
v -12 -24 0
v -11 -24 0
v -8 -25 0
v -9 -25 0
v -9 -24 0
v -8 -24 0
v -7 -25 0
v -8 -25 0
v -8 -24 0
v -7 -24 0
v -6 -25 0
v -7 -25 0
v -7 -24 0
v -6 -24 0
v -5 -25 0
v -6 -25 0
v -6 -24 0
v -5 -24 0
v -4 -25 0
v -5 -25 0
v -5 -24 0
v -4 -24 0
v -3 -25 0
v -4 -25 0
v -4 -24 0
v -3 -24 0
v -2 -25 0
v -3 -25 0
v -3 -24 0
v -2 -24 0
v -1 -25 0
v -2 -25 0
v -2 -24 0
v -1 -24 0
v 0 -25 0
v -1 -25 0
v -1 -24 0
v 0 -24 0

# Texture cooridinates (Count = 101)
vt 0.175 0.5
vt 0.2 0.5
vt 0.2 0.5277778
vt 0.175 0.5277778
vt 0.125 0.4444444
vt 0.15 0.4444444
vt 0.15 0.4722222
vt 0.125 0.4722222
vt 0.125 0.5
vt 0.15 0.5
vt 0.15 0.5277778
vt 0.125 0.5277778
vt 0.2 0.5555556
vt 0.175 0.5555556
vt 0.175 0.4722222
vt 0.2 0.4722222
vt 0.125 0.8333333
vt 0.15 0.8333333
vt 0.15 0.8611111
vt 0.125 0.8611111
vt 0.1 0.8333333
vt 0.1 0.8611111
vt 0.075 0.8333333
vt 0.075 0.8611111
vt 0.125 0.9444444
vt 0.15 0.9444444
vt 0.15 0.9722222
vt 0.125 0.9722222
vt 0.1 0.9444444
vt 0.1 0.9722222
vt 0.25 0.6666666
vt 0.275 0.6666666
vt 0.275 0.6944444
vt 0.25 0.6944444
vt 0.225 0.6666666
vt 0.225 0.6944444
vt 0.25 0.9722222
vt 0.275 0.9722222
vt 0.275 1
vt 0.25 1
vt 0.225 0.9722222
vt 0.225 1
vt 0.2 0.9722222
vt 0.2 1
vt 0.175 0.9722222
vt 0.175 1
vt 0.15 1
vt 0.125 0.9166667
vt 0.15 0.9166667
vt 0.1 0.9166667
vt 0.25 0.6388889
vt 0.275 0.6388889
vt 0.225 0.6388889
vt 0.25 0.9444444
vt 0.275 0.9444444
vt 0.225 0.9444444
vt 0.2 0.9444444
vt 0.175 0.9444444
vt 0.35 0.8333333
vt 0.375 0.8333333
vt 0.375 0.8611111
vt 0.35 0.8611111
vt 0.325 0.8333333
vt 0.325 0.8611111
vt 0.25 0.9166667
vt 0.275 0.9166667
vt 0.225 0.9166667
vt 0.2 0.9166667
vt 0.175 0.9166667
vt 0.35 0.8055556
vt 0.375 0.8055556
vt 0.325 0.8055556
vt 0.25 0.8888889
vt 0.275 0.8888889
vt 0.225 0.8888889
vt 0.2 0.8888889
vt 0.175 0.8888889
vt 0.15 0.8888889
vt 0.35 0.7777778
vt 0.375 0.7777778
vt 0.325 0.7777778
vt 0.25 0.8611111
vt 0.275 0.8611111
vt 0.225 0.8611111
vt 0.2 0.8611111
vt 0.175 0.8611111
vt 0.15 0.5555556
vt 0.125 0.5555556
vt 0.275 0.7222222
vt 0.25 0.7222222
vt 0.225 0.7222222
vt 0.3 0.6666666
vt 0.3 0.6944444
vt 0.325 0.6666666
vt 0.325 0.6944444
vt 0.3 0.6388889
vt 0.325 0.6388889
vt 0.1 0.4444444
vt 0.1 0.4722222
vt 0.075 0.4444444
vt 0.075 0.4722222

# Normal
vn 0 0 -1

# Mesh description
g overWorldTest_mesh_0002

# Faces
f 1/1/1 2/2/1 3/3/1 4/4/1
f 5/5/1 6/6/1 7/7/1 8/8/1
f 9/5/1 10/6/1 11/7/1 12/8/1
f 13/5/1 14/6/1 15/7/1 16/8/1
f 17/5/1 18/6/1 19/7/1 20/8/1
f 21/5/1 22/6/1 23/7/1 24/8/1
f 25/5/1 26/6/1 27/7/1 28/8/1
f 29/5/1 30/6/1 31/7/1 32/8/1
f 33/5/1 34/6/1 35/7/1 36/8/1
f 37/5/1 38/6/1 39/7/1 40/8/1
f 41/5/1 42/6/1 43/7/1 44/8/1
f 45/9/1 46/10/1 47/11/1 48/12/1
f 49/10/1 50/1/1 51/4/1 52/11/1
f 53/5/1 54/6/1 55/7/1 56/8/1
f 57/5/1 58/6/1 59/7/1 60/8/1
f 61/5/1 62/6/1 63/7/1 64/8/1
f 65/5/1 66/6/1 67/7/1 68/8/1
f 69/5/1 70/6/1 71/7/1 72/8/1
f 73/5/1 74/6/1 75/7/1 76/8/1
f 77/5/1 78/6/1 79/7/1 80/8/1
f 81/5/1 82/6/1 83/7/1 84/8/1
f 85/5/1 86/6/1 87/7/1 88/8/1
f 89/4/1 90/3/1 91/13/1 92/14/1
f 93/7/1 94/15/1 95/1/1 96/10/1
f 97/15/1 98/16/1 99/2/1 100/1/1
f 101/7/1 102/15/1 103/1/1 104/10/1
f 105/17/1 106/18/1 107/19/1 108/20/1
f 109/21/1 110/17/1 111/20/1 112/22/1
f 113/23/1 114/21/1 115/22/1 116/24/1
f 117/15/1 118/16/1 119/2/1 120/1/1
f 121/7/1 122/15/1 123/1/1 124/10/1
f 125/15/1 126/16/1 127/2/1 128/1/1
f 129/7/1 130/15/1 131/1/1 132/10/1
f 133/15/1 134/16/1 135/2/1 136/1/1
f 137/7/1 138/15/1 139/1/1 140/10/1
f 141/25/1 142/26/1 143/27/1 144/28/1
f 145/29/1 146/25/1 147/28/1 148/30/1
f 149/31/1 150/32/1 151/33/1 152/34/1
f 153/35/1 154/31/1 155/34/1 156/36/1
f 157/37/1 158/38/1 159/39/1 160/40/1
f 161/41/1 162/37/1 163/40/1 164/42/1
f 165/43/1 166/41/1 167/42/1 168/44/1
f 169/45/1 170/43/1 171/44/1 172/46/1
f 173/27/1 174/45/1 175/46/1 176/47/1
f 177/15/1 178/16/1 179/2/1 180/1/1
f 181/7/1 182/15/1 183/1/1 184/10/1
f 185/48/1 186/49/1 187/26/1 188/25/1
f 189/50/1 190/48/1 191/25/1 192/29/1
f 193/51/1 194/52/1 195/32/1 196/31/1
f 197/53/1 198/51/1 199/31/1 200/35/1
f 201/54/1 202/55/1 203/38/1 204/37/1
f 205/56/1 206/54/1 207/37/1 208/41/1
f 209/57/1 210/56/1 211/41/1 212/43/1
f 213/58/1 214/57/1 215/43/1 216/45/1
f 217/26/1 218/58/1 219/45/1 220/27/1
f 221/15/1 222/16/1 223/2/1 224/1/1
f 225/7/1 226/15/1 227/1/1 228/10/1
f 229/59/1 230/60/1 231/61/1 232/62/1
f 233/63/1 234/59/1 235/62/1 236/64/1
f 237/65/1 238/66/1 239/55/1 240/54/1
f 241/67/1 242/65/1 243/54/1 244/56/1
f 245/68/1 246/67/1 247/56/1 248/57/1
f 249/69/1 250/68/1 251/57/1 252/58/1
f 253/49/1 254/69/1 255/58/1 256/26/1
f 257/15/1 258/16/1 259/2/1 260/1/1
f 261/7/1 262/15/1 263/1/1 264/10/1
f 265/70/1 266/71/1 267/60/1 268/59/1
f 269/72/1 270/70/1 271/59/1 272/63/1
f 273/73/1 274/74/1 275/66/1 276/65/1
f 277/75/1 278/73/1 279/65/1 280/67/1
f 281/76/1 282/75/1 283/67/1 284/68/1
f 285/77/1 286/76/1 287/68/1 288/69/1
f 289/78/1 290/77/1 291/69/1 292/49/1
f 293/15/1 294/16/1 295/2/1 296/1/1
f 297/7/1 298/15/1 299/1/1 300/10/1
f 301/17/1 302/18/1 303/19/1 304/20/1
f 305/21/1 306/17/1 307/20/1 308/22/1
f 309/23/1 310/21/1 311/22/1 312/24/1
f 313/79/1 314/80/1 315/71/1 316/70/1
f 317/81/1 318/79/1 319/70/1 320/72/1
f 321/82/1 322/83/1 323/74/1 324/73/1
f 325/84/1 326/82/1 327/73/1 328/75/1
f 329/85/1 330/84/1 331/75/1 332/76/1
f 333/86/1 334/85/1 335/76/1 336/77/1
f 337/19/1 338/86/1 339/77/1 340/78/1
f 341/15/1 342/16/1 343/2/1 344/1/1
f 345/7/1 346/15/1 347/1/1 348/10/1
f 349/15/1 350/16/1 351/2/1 352/1/1
f 353/9/1 354/10/1 355/11/1 356/12/1
f 357/10/1 358/1/1 359/4/1 360/11/1
f 361/12/1 362/11/1 363/87/1 364/88/1
f 365/11/1 366/4/1 367/14/1 368/87/1
f 369/7/1 370/15/1 371/1/1 372/10/1
f 373/15/1 374/16/1 375/2/1 376/1/1
f 377/7/1 378/15/1 379/1/1 380/10/1
f 381/31/1 382/32/1 383/33/1 384/34/1
f 385/35/1 386/31/1 387/34/1 388/36/1
f 389/11/1 390/4/1 391/14/1 392/87/1
f 393/12/1 394/11/1 395/87/1 396/88/1
f 397/15/1 398/16/1 399/2/1 400/1/1
f 401/7/1 402/15/1 403/1/1 404/10/1
f 405/34/1 406/33/1 407/89/1 408/90/1
f 409/36/1 410/34/1 411/90/1 412/91/1
f 413/10/1 414/1/1 415/4/1 416/11/1
f 417/9/1 418/10/1 419/11/1 420/12/1
f 421/15/1 422/16/1 423/2/1 424/1/1
f 425/7/1 426/15/1 427/1/1 428/10/1
f 429/51/1 430/52/1 431/32/1 432/31/1
f 433/32/1 434/92/1 435/93/1 436/33/1
f 437/35/1 438/31/1 439/34/1 440/36/1
f 441/15/1 442/16/1 443/2/1 444/1/1
f 445/7/1 446/15/1 447/1/1 448/10/1
f 449/31/1 450/32/1 451/33/1 452/34/1
f 453/92/1 454/94/1 455/95/1 456/93/1
f 457/52/1 458/96/1 459/92/1 460/32/1
f 461/53/1 462/51/1 463/31/1 464/35/1
f 465/11/1 466/4/1 467/14/1 468/87/1
f 469/12/1 470/11/1 471/87/1 472/88/1
f 473/15/1 474/16/1 475/2/1 476/1/1
f 477/7/1 478/15/1 479/1/1 480/10/1
f 481/51/1 482/52/1 483/32/1 484/31/1
f 485/96/1 486/97/1 487/94/1 488/92/1
f 489/53/1 490/51/1 491/31/1 492/35/1
f 493/10/1 494/1/1 495/4/1 496/11/1
f 497/9/1 498/10/1 499/11/1 500/12/1
f 501/15/1 502/16/1 503/2/1 504/1/1
f 505/7/1 506/15/1 507/1/1 508/10/1
f 509/25/1 510/26/1 511/27/1 512/28/1
f 513/29/1 514/25/1 515/28/1 516/30/1
f 517/15/1 518/16/1 519/2/1 520/1/1
f 521/7/1 522/15/1 523/1/1 524/10/1
f 525/48/1 526/49/1 527/26/1 528/25/1
f 529/50/1 530/48/1 531/25/1 532/29/1
f 533/11/1 534/4/1 535/14/1 536/87/1
f 537/12/1 538/11/1 539/87/1 540/88/1
f 541/15/1 542/16/1 543/2/1 544/1/1
f 545/7/1 546/15/1 547/1/1 548/10/1
f 549/10/1 550/1/1 551/4/1 552/11/1
f 553/9/1 554/10/1 555/11/1 556/12/1
f 557/15/1 558/16/1 559/2/1 560/1/1
f 561/98/1 562/5/1 563/8/1 564/99/1
f 565/8/1 566/7/1 567/10/1 568/9/1
f 569/8/1 570/7/1 571/10/1 572/9/1
f 573/8/1 574/7/1 575/10/1 576/9/1
f 577/8/1 578/7/1 579/10/1 580/9/1
f 581/8/1 582/7/1 583/10/1 584/9/1
f 585/8/1 586/7/1 587/10/1 588/9/1
f 589/8/1 590/7/1 591/10/1 592/9/1
f 593/8/1 594/7/1 595/10/1 596/9/1
f 597/8/1 598/7/1 599/10/1 600/9/1
f 601/8/1 602/7/1 603/10/1 604/9/1
f 605/8/1 606/7/1 607/10/1 608/9/1
f 609/8/1 610/7/1 611/10/1 612/9/1
f 613/12/1 614/11/1 615/87/1 616/88/1
f 617/11/1 618/4/1 619/14/1 620/87/1
f 621/8/1 622/7/1 623/10/1 624/9/1
f 625/8/1 626/7/1 627/10/1 628/9/1
f 629/8/1 630/7/1 631/10/1 632/9/1
f 633/8/1 634/7/1 635/10/1 636/9/1
f 637/8/1 638/7/1 639/10/1 640/9/1
f 641/8/1 642/7/1 643/10/1 644/9/1
f 645/8/1 646/7/1 647/10/1 648/9/1
f 649/100/1 650/98/1 651/99/1 652/101/1

